<svg width="23" height="23" viewBox="0 0 23 23" fill="none" xmlns="http://www.w3.org/2000/svg">
<path d="M15.8123 13.4167C14.3748 13.4167 13.2248 13.8 12.3623 14.2792C13.704 15.4292 14.279 16.7708 14.3748 16.8667L14.4706 17.0583V19.1667H22.1373V17.25C22.0415 17.25 20.5081 13.4167 15.8123 13.4167Z" fill="#0499DD"/>
<path d="M15.8122 11.5C17.6646 11.5 19.1663 9.99828 19.1663 8.14582C19.1663 6.29337 17.6646 4.79166 15.8122 4.79166C13.9597 4.79166 12.458 6.29337 12.458 8.14582C12.458 9.99828 13.9597 11.5 15.8122 11.5Z" fill="#0499DD"/>
<path d="M3.83301 8.14582C3.83301 6.32499 5.36634 4.79166 7.18718 4.79166C9.00801 4.79166 10.5413 6.32499 10.5413 8.14582C10.5413 9.96666 9.00801 11.5 7.18718 11.5C5.36634 11.5 3.83301 9.96666 3.83301 8.14582ZM7.18718 13.4167C2.49134 13.4167 0.958008 17.25 0.958008 17.25V19.1667H13.4163V17.25C13.4163 17.25 11.883 13.4167 7.18718 13.4167Z" fill="#0499DD"/>
</svg>
