<svg width="156" height="134" viewBox="0 0 156 134" fill="none" xmlns="http://www.w3.org/2000/svg">
<path opacity="0.4" d="M99.8888 86.2082C96.1466 85.0881 92.2032 81.4613 88.0587 75.3279C84.0763 69.107 83.3172 61.8801 85.7814 53.6473C88.2456 45.4144 93.5606 38.7823 101.726 33.7511C109.892 28.7198 118.216 27.4736 126.699 30.0125C135.181 32.5513 141.438 37.0746 145.471 43.5823C149.503 50.0899 150.25 57.585 147.711 66.0673C145.21 74.4249 140.314 82.6095 133.023 90.6209C125.857 98.6697 117.286 105.279 107.312 110.448C97.463 115.655 87.9051 118.299 78.6386 118.38C75.1069 114.74 73.8446 110.557 74.8518 105.83C80.5499 103.593 85.8671 100.36 90.8032 96.1289C95.9014 91.8105 98.9299 88.5036 99.8888 86.2082ZM32.716 66.1026C29.0985 65.0199 25.2175 61.4118 21.073 55.2783C17.0906 49.0575 16.3315 41.8306 18.7957 33.5977C21.2972 25.2401 26.6122 18.608 34.7406 13.7015C42.9064 8.67026 51.2305 7.42406 59.7129 9.96292C68.1952 12.5018 74.3903 17.0064 78.298 23.4767C82.3305 29.9844 83.0773 37.4794 80.5384 45.9618C78.0369 54.3194 73.1407 62.5039 65.8498 70.5154C58.6837 78.5642 50.1136 85.1733 40.1395 90.3429C30.2901 95.5499 20.7323 98.1937 11.4658 98.2744C7.97138 94.5101 6.70909 90.3267 7.67897 85.724C13.5019 83.5253 18.8814 80.3104 23.8175 76.0794C28.7536 71.8484 31.7198 68.5228 32.716 66.1026Z" fill="#FFC700"/>
</svg>
