<svg width="304" height="117" viewBox="0 0 304 117" fill="none" xmlns="http://www.w3.org/2000/svg">
<path d="M40.536 3.904L39.7237 5.73162L40.536 3.904ZM48.528 10.528L46.8511 11.618L46.8511 11.618L48.528 10.528ZM48.528 30.688L46.8511 29.598L48.528 30.688ZM40.536 37.312L39.7237 35.4844L40.536 37.312ZM21.096 39.616V37.616H19.096V39.616H21.096ZM21.096 52V54H23.096V52H21.096ZM4.104 52H2.104V54H4.104V52ZM4.104 1.6V-0.400003H2.104V1.6H4.104ZM32.472 25L33.789 26.5051L33.8064 26.4899L33.8235 26.4743L32.472 25ZM32.472 16.288L31.1206 17.7623L31.1376 17.7779L31.155 17.7932L32.472 16.288ZM21.096 14.704V12.704H19.096V14.704H21.096ZM21.096 26.512H19.096V28.512H21.096V26.512ZM28.368 3.6C32.8072 3.6 36.5754 4.33234 39.7237 5.73162L41.3483 2.07637C37.5846 0.403649 33.2408 -0.400003 28.368 -0.400003V3.6ZM39.7237 5.73162C42.8633 7.127 45.211 9.09472 46.8511 11.618L50.2049 9.43802C48.101 6.20127 45.1207 3.75299 41.3483 2.07637L39.7237 5.73162ZM46.8511 11.618C48.4879 14.1361 49.336 17.1077 49.336 20.608H53.336C53.336 16.4282 52.3121 12.6799 50.2049 9.43802L46.8511 11.618ZM49.336 20.608C49.336 24.1082 48.4879 27.0799 46.8511 29.598L50.2049 31.778C52.3121 28.5361 53.336 24.7878 53.336 20.608H49.336ZM46.8511 29.598C45.211 32.1213 42.8633 34.089 39.7237 35.4844L41.3483 39.1396C45.1207 37.463 48.101 35.0147 50.2049 31.778L46.8511 29.598ZM39.7237 35.4844C36.5754 36.8837 32.8072 37.616 28.368 37.616V41.616C33.2408 41.616 37.5846 40.8123 41.3483 39.1396L39.7237 35.4844ZM28.368 37.616H21.096V41.616H28.368V37.616ZM19.096 39.616V52H23.096V39.616H19.096ZM21.096 50H4.104V54H21.096V50ZM6.104 52V1.6H2.104V52H6.104ZM4.104 3.6H28.368V-0.400003H4.104V3.6ZM27.288 28.512C29.8396 28.512 32.1268 27.9596 33.789 26.5051L31.155 23.4948C30.5132 24.0564 29.3444 24.512 27.288 24.512V28.512ZM33.8235 26.4743C35.4699 24.9651 36.2 22.9201 36.2 20.608H32.2C32.2 22.0399 31.7781 22.9229 31.1206 23.5257L33.8235 26.4743ZM36.2 20.608C36.2 18.2991 35.4702 16.2539 33.789 14.7828L31.155 17.7932C31.7778 18.3381 32.2 19.1729 32.2 20.608H36.2ZM33.8235 14.8137C32.1608 13.2896 29.8593 12.704 27.288 12.704V16.704C29.3247 16.704 30.4792 17.1744 31.1206 17.7623L33.8235 14.8137ZM27.288 12.704H21.096V16.704H27.288V12.704ZM19.096 14.704V26.512H23.096V14.704H19.096ZM21.096 28.512H27.288V24.512H21.096V28.512ZM98.8127 39.184H100.813V37.184H98.8127V39.184ZM98.8127 52V54H100.813V52H98.8127ZM56.9087 52H54.9087V54H56.9087V52ZM56.9087 1.6V-0.400003H54.9087V1.6H56.9087ZM97.8767 1.6H99.8767V-0.400003H97.8767V1.6ZM97.8767 14.416V16.416H99.8767V14.416H97.8767ZM73.6127 14.416V12.416H71.6127V14.416H73.6127ZM73.6127 20.32H71.6127V22.32H73.6127V20.32ZM94.9247 20.32H96.9247V18.32H94.9247V20.32ZM94.9247 32.56V34.56H96.9247V32.56H94.9247ZM73.6127 32.56V30.56H71.6127V32.56H73.6127ZM73.6127 39.184H71.6127V41.184H73.6127V39.184ZM96.8127 39.184V52H100.813V39.184H96.8127ZM98.8127 50H56.9087V54H98.8127V50ZM58.9087 52V1.6H54.9087V52H58.9087ZM56.9087 3.6H97.8767V-0.400003H56.9087V3.6ZM95.8767 1.6V14.416H99.8767V1.6H95.8767ZM97.8767 12.416H73.6127V16.416H97.8767V12.416ZM71.6127 14.416V20.32H75.6127V14.416H71.6127ZM73.6127 22.32H94.9247V18.32H73.6127V22.32ZM92.9247 20.32V32.56H96.9247V20.32H92.9247ZM94.9247 30.56H73.6127V34.56H94.9247V30.56ZM71.6127 32.56V39.184H75.6127V32.56H71.6127ZM73.6127 41.184H98.8127V37.184H73.6127V41.184ZM126.954 39.328L128.611 38.2078L128.016 37.328H126.954V39.328ZM122.346 39.328V37.328H120.346V39.328H122.346ZM122.346 52V54H124.346V52H122.346ZM105.354 52H103.354V54H105.354V52ZM105.354 1.6V-0.400003H103.354V1.6H105.354ZM141.786 3.904L140.974 5.73162L141.786 3.904ZM149.778 10.528L148.101 11.618V11.618L149.778 10.528ZM150.138 30.04L148.428 29.002V29.002L150.138 30.04ZM143.082 36.448L142.165 34.6704L140.158 35.7057L141.429 37.5732L143.082 36.448ZM153.666 52V54H157.446L155.319 50.8748L153.666 52ZM135.522 52L133.865 53.1202L134.46 54H135.522V52ZM133.722 16.288L132.371 17.7623L132.388 17.7779L132.405 17.7932L133.722 16.288ZM122.346 14.704V12.704H120.346V14.704H122.346ZM122.346 26.512H120.346V28.512H122.346V26.512ZM133.722 25L135.039 26.5051L135.056 26.4899L135.073 26.4743L133.722 25ZM126.954 37.328H122.346V41.328H126.954V37.328ZM120.346 39.328V52H124.346V39.328H120.346ZM122.346 50H105.354V54H122.346V50ZM107.354 52V1.6H103.354V52H107.354ZM105.354 3.6H129.618V-0.400003H105.354V3.6ZM129.618 3.6C134.057 3.6 137.825 4.33234 140.974 5.73162L142.598 2.07637C138.835 0.403649 134.491 -0.400003 129.618 -0.400003V3.6ZM140.974 5.73162C144.113 7.127 146.461 9.09472 148.101 11.618L151.455 9.43802C149.351 6.20127 146.371 3.75299 142.598 2.07637L140.974 5.73162ZM148.101 11.618C149.738 14.1361 150.586 17.1077 150.586 20.608H154.586C154.586 16.4282 153.562 12.6799 151.455 9.43802L148.101 11.618ZM150.586 20.608C150.586 23.896 149.844 26.6701 148.428 29.002L151.848 31.078C153.696 28.0339 154.586 24.52 154.586 20.608H150.586ZM148.428 29.002C147.006 31.3444 144.944 33.2379 142.165 34.6704L143.999 38.2256C147.364 36.4901 150.006 34.1116 151.848 31.078L148.428 29.002ZM141.429 37.5732L152.013 53.1252L155.319 50.8748L144.735 35.3228L141.429 37.5732ZM153.666 50H135.522V54H153.666V50ZM137.179 50.8798L128.611 38.2078L125.297 40.4482L133.865 53.1202L137.179 50.8798ZM137.45 20.608C137.45 18.2991 136.72 16.2539 135.039 14.7828L132.405 17.7932C133.028 18.3381 133.45 19.1729 133.45 20.608H137.45ZM135.073 14.8137C133.411 13.2896 131.109 12.704 128.538 12.704V16.704C130.575 16.704 131.729 17.1744 132.371 17.7623L135.073 14.8137ZM128.538 12.704H122.346V16.704H128.538V12.704ZM120.346 14.704V26.512H124.346V14.704H120.346ZM122.346 28.512H128.538V24.512H122.346V28.512ZM128.538 28.512C131.09 28.512 133.377 27.9596 135.039 26.5051L132.405 23.4948C131.763 24.0564 130.594 24.512 128.538 24.512V28.512ZM135.073 26.4743C136.72 24.9651 137.45 22.9201 137.45 20.608H133.45C133.45 22.0399 133.028 22.9229 132.371 23.5257L135.073 26.4743ZM170.81 49.768L171.736 47.9952L170.81 49.768ZM160.658 40.408L158.949 41.446L158.954 41.455L160.658 40.408ZM160.658 13.264L162.362 14.3111L162.368 14.302L160.658 13.264ZM200.042 3.832L200.968 2.05918L200.042 3.832ZM210.194 13.264L208.485 14.302L208.49 14.311L210.194 13.264ZM210.194 40.408L211.898 41.4551L211.904 41.446L210.194 40.408ZM200.042 49.768L200.968 51.5408L200.042 49.768ZM191.114 37.888L192.143 39.603L192.15 39.5988L192.157 39.5946L191.114 37.888ZM195.218 33.496L196.979 34.4442L196.984 34.435L196.989 34.4257L195.218 33.496ZM195.218 20.176L193.448 21.1057L193.453 21.115L193.457 21.1242L195.218 20.176ZM191.114 15.784L190.05 17.4773L190.078 17.4949L190.107 17.5116L191.114 15.784ZM179.666 15.784L180.695 17.499L180.702 17.4948L180.709 17.4906L179.666 15.784ZM175.634 20.176L177.395 21.1242L177.4 21.115L177.405 21.1057L175.634 20.176ZM175.634 33.496L173.864 34.4257L173.869 34.435L173.873 34.4442L175.634 33.496ZM179.666 37.888L178.602 39.5813L178.63 39.5989L178.659 39.6156L179.666 37.888ZM185.426 51.152C180.288 51.152 175.739 50.0857 171.736 47.9952L169.885 51.5408C174.521 53.9623 179.717 55.152 185.426 55.152V51.152ZM171.736 47.9952C167.722 45.899 164.613 43.0239 162.362 39.361L158.954 41.455C161.6 45.7601 165.259 49.125 169.885 51.5408L171.736 47.9952ZM162.368 39.37C160.123 35.6725 158.986 31.5 158.986 26.8H154.986C154.986 32.18 156.298 37.0795 158.949 41.446L162.368 39.37ZM158.986 26.8C158.986 22.0998 160.123 17.9556 162.362 14.311L158.954 12.2169C156.298 16.5404 154.986 21.4202 154.986 26.8H158.986ZM162.368 14.302C164.62 10.5925 167.728 7.69782 171.736 5.60482L169.885 2.05918C165.253 4.47818 161.593 7.8715 158.949 12.226L162.368 14.302ZM171.736 5.60482C175.739 3.51428 180.288 2.448 185.426 2.448V-1.552C179.717 -1.552 174.521 -0.362285 169.885 2.05918L171.736 5.60482ZM185.426 2.448C190.565 2.448 195.113 3.51428 199.117 5.60482L200.968 2.05918C196.331 -0.362285 191.136 -1.552 185.426 -1.552V2.448ZM199.117 5.60482C203.125 7.69782 206.233 10.5925 208.485 14.302L211.904 12.226C209.26 7.8715 205.6 4.47818 200.968 2.05918L199.117 5.60482ZM208.49 14.311C210.73 17.9556 211.866 22.0998 211.866 26.8H215.866C215.866 21.4202 214.555 16.5404 211.898 12.2169L208.49 14.311ZM211.866 26.8C211.866 31.5 210.73 35.6725 208.485 39.37L211.904 41.446C214.555 37.0795 215.866 32.18 215.866 26.8H211.866ZM208.49 39.361C206.24 43.0239 203.131 45.899 199.117 47.9952L200.968 51.5408C205.594 49.125 209.253 45.7601 211.898 41.455L208.49 39.361ZM199.117 47.9952C195.113 50.0857 190.565 51.152 185.426 51.152V55.152C191.136 55.152 196.331 53.9623 200.968 51.5408L199.117 47.9952ZM185.426 41.4C187.872 41.4 190.128 40.812 192.143 39.603L190.085 36.173C188.74 36.98 187.205 37.4 185.426 37.4V41.4ZM192.157 39.5946C194.203 38.3445 195.812 36.6119 196.979 34.4442L193.457 32.5478C192.609 34.1241 191.482 35.3195 190.072 36.1814L192.157 39.5946ZM196.989 34.4257C198.172 32.173 198.73 29.6118 198.73 26.8H194.73C194.73 29.0762 194.281 30.9789 193.448 32.5663L196.989 34.4257ZM198.73 26.8C198.73 23.9898 198.172 21.4434 196.979 19.2278L193.457 21.1242C194.28 22.6526 194.73 24.5222 194.73 26.8H198.73ZM196.989 19.2463C195.822 17.023 194.202 15.2694 192.122 14.0564L190.107 17.5116C191.483 18.3146 192.599 19.489 193.448 21.1057L196.989 19.2463ZM192.179 14.0907C190.159 12.8213 187.89 12.2 185.426 12.2V16.2C187.187 16.2 188.71 16.6347 190.05 17.4773L192.179 14.0907ZM185.426 12.2C182.963 12.2 180.679 12.8211 178.624 14.0774L180.709 17.4906C182.109 16.6349 183.666 16.2 185.426 16.2V12.2ZM178.637 14.069C176.61 15.2855 175.023 17.0372 173.864 19.2463L177.405 21.1057C178.261 19.4748 179.363 18.2985 180.695 17.499L178.637 14.069ZM173.873 19.2278C172.68 21.4434 172.122 23.9898 172.122 26.8H176.122C176.122 24.5222 176.572 22.6526 177.395 21.1242L173.873 19.2278ZM172.122 26.8C172.122 29.6118 172.681 32.173 173.864 34.4257L177.405 32.5663C176.572 30.979 176.122 29.0762 176.122 26.8H172.122ZM173.873 34.4442C175.033 36.5981 176.609 38.3282 178.602 39.5813L180.731 36.1947C179.364 35.3358 178.252 34.1379 177.395 32.5478L173.873 34.4442ZM178.659 39.6156C180.71 40.812 182.981 41.4 185.426 41.4V37.4C183.648 37.4 182.079 36.98 180.674 36.1604L178.659 39.6156ZM15.048 79.776H17.048V77.776H15.048V79.776ZM0.288 79.776H-1.712V81.776H0.288V79.776ZM0.288 66.6V64.6H-1.712V66.6H0.288ZM46.8 66.6H48.8V64.6H46.8V66.6ZM46.8 79.776V81.776H48.8V79.776H46.8ZM32.04 79.776V77.776H30.04V79.776H32.04ZM32.04 117V119H34.04V117H32.04ZM15.048 117H13.048V119H15.048V117ZM15.048 77.776H0.288V81.776H15.048V77.776ZM2.288 79.776V66.6H-1.712V79.776H2.288ZM0.288 68.6H46.8V64.6H0.288V68.6ZM44.8 66.6V79.776H48.8V66.6H44.8ZM46.8 77.776H32.04V81.776H46.8V77.776ZM30.04 79.776V117H34.04V79.776H30.04ZM32.04 115H15.048V119H32.04V115ZM17.048 117V79.776H13.048V117H17.048ZM72.8134 104.328L74.4702 103.208L73.8754 102.328H72.8134V104.328ZM68.2054 104.328V102.328H66.2054V104.328H68.2054ZM68.2054 117V119H70.2054V117H68.2054ZM51.2134 117H49.2134V119H51.2134V117ZM51.2134 66.6V64.6H49.2134V66.6H51.2134ZM87.6454 68.904L86.8331 70.7316L87.6454 68.904ZM95.6374 75.528L93.9605 76.618L95.6374 75.528ZM95.9974 95.04L94.2878 94.002L95.9974 95.04ZM88.9414 101.448L88.0248 99.6704L86.017 100.706L87.2879 102.573L88.9414 101.448ZM99.5254 117V119H103.306L101.179 115.875L99.5254 117ZM81.3814 117L79.7245 118.12L80.3194 119H81.3814V117ZM79.5814 81.288L78.2299 82.7623L78.247 82.7779L78.2644 82.7932L79.5814 81.288ZM68.2054 79.704V77.704H66.2054V79.704H68.2054ZM68.2054 91.512H66.2054V93.512H68.2054V91.512ZM79.5814 90L80.8984 91.5051L80.9158 91.4899L80.9328 91.4743L79.5814 90ZM72.8134 102.328H68.2054V106.328H72.8134V102.328ZM66.2054 104.328V117H70.2054V104.328H66.2054ZM68.2054 115H51.2134V119H68.2054V115ZM53.2134 117V66.6H49.2134V117H53.2134ZM51.2134 68.6H75.4774V64.6H51.2134V68.6ZM75.4774 68.6C79.9165 68.6 83.6847 69.3323 86.8331 70.7316L88.4577 67.0764C84.694 65.4036 80.3502 64.6 75.4774 64.6V68.6ZM86.8331 70.7316C89.9727 72.127 92.3204 74.0947 93.9605 76.618L97.3143 74.438C95.2104 71.2013 92.23 68.753 88.4577 67.0764L86.8331 70.7316ZM93.9605 76.618C95.5973 79.1361 96.4454 82.1077 96.4454 85.608H100.445C100.445 81.4282 99.4215 77.6799 97.3143 74.438L93.9605 76.618ZM96.4454 85.608C96.4454 88.896 95.7036 91.6701 94.2878 94.002L97.7069 96.078C99.5551 93.0339 100.445 89.52 100.445 85.608H96.4454ZM94.2878 94.002C92.8656 96.3444 90.8029 98.2379 88.0248 99.6704L89.858 103.226C93.2238 101.49 95.8651 99.1116 97.707 96.078L94.2878 94.002ZM87.2879 102.573L97.872 118.125L101.179 115.875L90.5948 100.323L87.2879 102.573ZM99.5254 115H81.3814V119H99.5254V115ZM83.0382 115.88L74.4702 103.208L71.1566 105.448L79.7245 118.12L83.0382 115.88ZM83.3094 85.608C83.3094 83.2991 82.5796 81.2539 80.8984 79.7828L78.2644 82.7932C78.8872 83.3381 79.3094 84.1729 79.3094 85.608H83.3094ZM80.9328 79.8137C79.2701 78.2896 76.9686 77.704 74.3974 77.704V81.704C76.4341 81.704 77.5886 82.1744 78.2299 82.7623L80.9328 79.8137ZM74.3974 77.704H68.2054V81.704H74.3974V77.704ZM66.2054 79.704V91.512H70.2054V79.704H66.2054ZM68.2054 93.512H74.3974V89.512H68.2054V93.512ZM74.3974 93.512C76.9489 93.512 79.2361 92.9596 80.8984 91.5051L78.2644 88.4948C77.6226 89.0564 76.4538 89.512 74.3974 89.512V93.512ZM80.9328 91.4743C82.5792 89.9651 83.3094 87.9201 83.3094 85.608H79.3094C79.3094 87.0399 78.8875 87.9229 78.2299 88.5257L80.9328 91.4743ZM139.206 108.216L141.072 107.497L140.579 106.216H139.206V108.216ZM120.054 108.216V106.216H118.681L118.188 107.497L120.054 108.216ZM116.67 117V119H118.043L118.536 117.719L116.67 117ZM99.3898 117L97.5573 116.199L96.3328 119H99.3898V117ZM121.422 66.6V64.6H120.113L119.589 65.7989L121.422 66.6ZM138.126 66.6L139.958 65.7989L139.434 64.6H138.126V66.6ZM160.158 117V119H163.215L161.99 116.199L160.158 117ZM142.59 117L140.724 117.719L141.217 119H142.59V117ZM134.526 95.976V97.976H137.443L136.391 95.2552L134.526 95.976ZM129.63 83.304L131.495 82.5832L129.63 77.7546L127.764 82.5832L129.63 83.304ZM124.734 95.976L122.868 95.2552L121.817 97.976H124.734V95.976ZM139.206 106.216H120.054V110.216H139.206V106.216ZM118.188 107.497L114.804 116.281L118.536 117.719L121.92 108.935L118.188 107.497ZM116.67 115H99.3898V119H116.67V115ZM101.222 117.801L123.254 67.4011L119.589 65.7989L97.5573 116.199L101.222 117.801ZM121.422 68.6H138.126V64.6H121.422V68.6ZM136.293 67.4011L158.325 117.801L161.99 116.199L139.958 65.7989L136.293 67.4011ZM160.158 115H142.59V119H160.158V115ZM144.456 116.281L141.072 107.497L137.34 108.935L140.724 117.719L144.456 116.281ZM136.391 95.2552L131.495 82.5832L127.764 84.0248L132.66 96.6968L136.391 95.2552ZM127.764 82.5832L122.868 95.2552L126.599 96.6968L131.495 84.0248L127.764 82.5832ZM124.734 97.976H134.526V93.976H124.734V97.976ZM213.843 66.6L215.685 67.3789L216.86 64.6H213.843V66.6ZM192.531 117V119H193.857L194.373 117.779L192.531 117ZM175.827 117L173.985 117.779L174.501 119H175.827V117ZM154.515 66.6V64.6H151.498L152.673 67.3789L154.515 66.6ZM172.803 66.6L174.654 65.844L174.146 64.6H172.803V66.6ZM184.827 96.048L182.975 96.804L184.805 101.285L186.672 96.8195L184.827 96.048ZM197.139 66.6V64.6H195.807L195.294 65.8285L197.139 66.6ZM212.001 65.8211L190.689 116.221L194.373 117.779L215.685 67.3789L212.001 65.8211ZM192.531 115H175.827V119H192.531V115ZM177.669 116.221L156.357 65.8211L152.673 67.3789L173.985 117.779L177.669 116.221ZM154.515 68.6H172.803V64.6H154.515V68.6ZM170.951 67.356L182.975 96.804L186.678 95.292L174.654 65.844L170.951 67.356ZM186.672 96.8195L198.984 67.3715L195.294 65.8285L182.982 95.2765L186.672 96.8195ZM197.139 68.6H213.843V64.6H197.139V68.6ZM257.438 104.184H259.438V102.184H257.438V104.184ZM257.438 117V119H259.438V117H257.438ZM215.534 117H213.534V119H215.534V117ZM215.534 66.6V64.6H213.534V66.6H215.534ZM256.502 66.6H258.502V64.6H256.502V66.6ZM256.502 79.416V81.416H258.502V79.416H256.502ZM232.238 79.416V77.416H230.238V79.416H232.238ZM232.238 85.32H230.238V87.32H232.238V85.32ZM253.55 85.32H255.55V83.32H253.55V85.32ZM253.55 97.56V99.56H255.55V97.56H253.55ZM232.238 97.56V95.56H230.238V97.56H232.238ZM232.238 104.184H230.238V106.184H232.238V104.184ZM255.438 104.184V117H259.438V104.184H255.438ZM257.438 115H215.534V119H257.438V115ZM217.534 117V66.6H213.534V117H217.534ZM215.534 68.6H256.502V64.6H215.534V68.6ZM254.502 66.6V79.416H258.502V66.6H254.502ZM256.502 77.416H232.238V81.416H256.502V77.416ZM230.238 79.416V85.32H234.238V79.416H230.238ZM232.238 87.32H253.55V83.32H232.238V87.32ZM251.55 85.32V97.56H255.55V85.32H251.55ZM253.55 95.56H232.238V99.56H253.55V95.56ZM230.238 97.56V104.184H234.238V97.56H230.238ZM232.238 106.184H257.438V102.184H232.238V106.184ZM263.979 66.6V64.6H261.979V66.6H263.979ZM280.971 66.6H282.971V64.6H280.971V66.6ZM280.971 103.824H278.971V105.824H280.971V103.824ZM303.723 103.824H305.723V101.824H303.723V103.824ZM303.723 117V119H305.723V117H303.723ZM263.979 117H261.979V119H263.979V117ZM263.979 68.6H280.971V64.6H263.979V68.6ZM278.971 66.6V103.824H282.971V66.6H278.971ZM280.971 105.824H303.723V101.824H280.971V105.824ZM301.723 103.824V117H305.723V103.824H301.723ZM303.723 115H263.979V119H303.723V115ZM265.979 117V66.6H261.979V117H265.979Z" fill="white"/>
</svg>
