<svg width="15" height="15" viewBox="0 0 15 15" fill="none" xmlns="http://www.w3.org/2000/svg">
<path d="M9.70012 4.41997C11.4012 4.41997 12.7801 3.92748 12.7801 3.31997C12.7801 2.71246 11.4012 2.21997 9.70012 2.21997C7.99908 2.21997 6.62012 2.71246 6.62012 3.31997C6.62012 3.92748 7.99908 4.41997 9.70012 4.41997Z" stroke="white" stroke-width="0.6" stroke-miterlimit="10" stroke-linecap="round" stroke-linejoin="round"/>
<path d="M6.62012 3.54004C6.62012 3.74068 6.62012 4.6594 6.62012 4.86004C6.62012 5.46746 7.99864 5.96004 9.70012 5.96004C11.4016 5.96004 12.7801 5.46746 12.7801 4.86004C12.7801 4.6594 12.7801 3.74068 12.7801 3.54004" stroke="white" stroke-width="0.6" stroke-miterlimit="10" stroke-linecap="round" stroke-linejoin="round"/>
<path d="M8.28125 7.37654C8.70585 7.4553 9.18853 7.49996 9.70025 7.49996C11.4017 7.49996 12.7803 7.00738 12.7803 6.39996C12.7803 6.19932 12.7803 5.2806 12.7803 5.07996" stroke="white" stroke-width="0.6" stroke-miterlimit="10" stroke-linecap="round" stroke-linejoin="round"/>
<path d="M6.62012 5.07996C6.62012 5.2806 6.62012 6.01936 6.62012 6.01936" stroke="white" stroke-width="0.6" stroke-miterlimit="10" stroke-linecap="round" stroke-linejoin="round"/>
<path d="M8.38574 8.93505C8.78438 9.00237 9.22988 9.03999 9.70024 9.03999C11.4017 9.03999 12.7802 8.54763 12.7802 7.93999C12.7802 7.73935 12.7802 6.82064 12.7802 6.62" stroke="white" stroke-width="0.6" stroke-miterlimit="10" stroke-linecap="round" stroke-linejoin="round"/>
<path d="M8.36865 10.4722C8.77147 10.5413 9.22313 10.58 9.70009 10.58C11.4016 10.58 12.7801 10.0877 12.7801 9.48003C12.7801 9.27939 12.7801 8.36067 12.7801 8.16003" stroke="white" stroke-width="0.6" stroke-miterlimit="10" stroke-linecap="round" stroke-linejoin="round"/>
<path d="M5.29973 8.15996C7.00076 8.15996 8.37973 7.66747 8.37973 7.05996C8.37973 6.45245 7.00076 5.95996 5.29973 5.95996C3.59869 5.95996 2.21973 6.45245 2.21973 7.05996C2.21973 7.66747 3.59869 8.15996 5.29973 8.15996Z" stroke="white" stroke-width="0.6" stroke-miterlimit="10" stroke-linecap="round" stroke-linejoin="round"/>
<path d="M2.21973 7.28003C2.21973 7.48067 2.21973 8.39939 2.21973 8.60003C2.21973 9.20767 3.59825 9.70003 5.29973 9.70003C7.00121 9.70003 8.37973 9.20767 8.37973 8.60003C8.37973 8.39939 8.37973 7.48067 8.37973 7.28003" stroke="white" stroke-width="0.6" stroke-miterlimit="10" stroke-linecap="round" stroke-linejoin="round"/>
<path d="M2.21973 8.81995C2.21973 9.02059 2.21973 9.93931 2.21973 10.1399C2.21973 10.7476 3.59825 11.2399 5.29973 11.2399C7.00121 11.2399 8.37973 10.7476 8.37973 10.1399C8.37973 9.93931 8.37973 9.02059 8.37973 8.81995" stroke="white" stroke-width="0.6" stroke-miterlimit="10" stroke-linecap="round" stroke-linejoin="round"/>
<path d="M2.21973 10.36C2.21973 10.5606 2.21973 11.4793 2.21973 11.68C2.21973 12.2876 3.59825 12.78 5.29973 12.78C7.00121 12.78 8.37973 12.2876 8.37973 11.68C8.37973 11.4793 8.37973 10.5606 8.37973 10.36" stroke="white" stroke-width="0.6" stroke-miterlimit="10" stroke-linecap="round" stroke-linejoin="round"/>
</svg>
