<svg width="118" height="26" viewBox="0 0 118 26" fill="none" xmlns="http://www.w3.org/2000/svg">
<path d="M8.376 10.984L8.616 10.024C8.68 9.8 8.728 9.496 8.76 9.112C8.856 8.792 8.936 8.44 9 8.056C9.128 6.904 9.128 5.96 9 5.224C8.904 4.52 8.776 3.96 8.616 3.544C8.392 3.032 8.152 2.68 7.896 2.488C7.416 2.232 7.016 2.536 6.696 3.4C6.376 4.232 6.104 5.336 5.88 6.712C5.72 8.216 5.592 9.832 5.496 11.56C5.4 13.384 5.368 15.112 5.4 16.744C5.592 16.584 5.8 16.344 6.024 16.024C6.28 15.768 6.52 15.448 6.744 15.064C7.448 13.816 7.992 12.456 8.376 10.984ZM9.048 22.792C9.176 22.92 9.368 22.952 9.624 22.888C9.784 22.824 9.928 22.68 10.056 22.456C10.184 22.232 10.328 21.96 10.488 21.64C10.168 21.416 9.848 21.24 9.528 21.112C9.208 20.984 8.984 21 8.856 21.16C8.76 21.288 8.712 21.464 8.712 21.688C8.68 21.912 8.696 22.12 8.76 22.312C8.824 22.536 8.92 22.696 9.048 22.792ZM14.76 17.224C14.824 18.376 14.68 19.576 14.328 20.824C14.168 21.464 14.008 21.976 13.848 22.36C14.072 22.36 14.28 22.232 14.472 21.976C14.792 21.592 15.112 21.16 15.432 20.68C15.72 20.232 15.992 19.784 16.248 19.336C16.472 18.92 16.68 18.52 16.872 18.136C17.032 17.784 17.16 17.512 17.256 17.32C17.32 17.16 17.416 17.112 17.544 17.176H17.64C17.8 17.24 17.912 17.336 17.976 17.464C18.008 17.592 17.992 17.736 17.928 17.896C17.064 19.848 16.232 21.384 15.432 22.504C15.176 22.92 14.904 23.192 14.616 23.32C14.328 23.48 14.04 23.576 13.752 23.608C13.464 23.608 13.24 23.576 13.08 23.512L12.792 23.848L12.456 24.184C12.104 24.472 11.736 24.696 11.352 24.856C11 25.016 10.616 25.112 10.2 25.144C9.752 25.176 9.288 25.064 8.808 24.808C8.552 24.68 8.344 24.52 8.184 24.328C8.024 24.168 7.88 23.944 7.752 23.656C7.624 23.4 7.544 23.096 7.512 22.744C7.48 22.424 7.496 22.072 7.56 21.688C7.592 21.304 7.752 20.904 8.04 20.488C8.392 19.944 8.808 19.736 9.288 19.864C9.768 19.992 10.28 20.248 10.824 20.632L11.016 19.816C11.048 19.56 11.096 19.336 11.16 19.144C11.32 18.312 11.4 17.64 11.4 17.128C11.4 16.936 11.384 16.744 11.352 16.552C11.288 15.816 11.176 15.256 11.016 14.872C10.792 14.392 10.52 14.104 10.2 14.008C9.688 14.04 9.24 14.28 8.856 14.728C8.472 15.144 8.152 15.608 7.896 16.12C7.672 16.632 7.496 17.144 7.368 17.656C7.24 18.136 7.16 18.456 7.128 18.616C6.68 20.056 6.536 22.024 6.696 24.52C6.696 24.648 6.632 24.776 6.504 24.904C6.376 25 6.216 25.048 6.024 25.048C5.384 25.016 4.888 24.872 4.536 24.616C4.184 24.328 3.928 24.056 3.768 23.8C3.544 23.448 3.4 23.064 3.336 22.648C3.144 21.432 3 20.872 2.904 20.968C2.808 21.064 2.776 20.504 2.808 19.288C2.072 19.416 1.384 19.416 0.744 19.288C0.552 19.256 0.456 19.064 0.456 18.712C0.52 18.264 0.648 18.072 0.84 18.136C1.096 18.168 1.352 18.2 1.608 18.232C1.864 18.2 2.104 18.168 2.328 18.136C2.52 18.104 2.696 18.088 2.856 18.088C2.856 17.416 2.872 16.856 2.904 16.408V14.008C2.936 12.568 3.016 11.192 3.144 9.88C3.272 8.472 3.496 7.128 3.816 5.848C4.104 4.632 4.504 3.544 5.016 2.584C5.304 1.944 5.624 1.464 5.976 1.144C6.296 0.888 6.6 0.696 6.888 0.568C7.176 0.503999 7.432 0.487998 7.656 0.519998C7.88 0.551999 8.04 0.615999 8.136 0.711998C8.84 0.967999 9.4 1.624 9.816 2.68C10.168 3.704 10.344 4.776 10.344 5.896C10.312 7.048 10.184 8.216 9.96 9.4C9.768 10.52 9.464 11.576 9.048 12.568C8.888 12.952 8.728 13.336 8.568 13.72C8.76 13.496 8.952 13.32 9.144 13.192C9.752 12.744 10.52 12.568 11.448 12.664C12.344 12.76 13.064 13.176 13.608 13.912C14.152 14.648 14.52 15.528 14.712 16.552C14.744 16.776 14.76 17 14.76 17.224ZM18.2235 21.88C18.2875 21.304 18.2555 20.888 18.1275 20.632C18.0315 20.408 17.9035 20.264 17.7435 20.2C17.6795 20.84 17.6475 21.352 17.6475 21.736C17.6795 22.152 17.7595 22.376 17.8875 22.408C18.0155 22.408 18.1115 22.328 18.1755 22.168L18.2235 21.88ZM22.8315 9.88C23.9195 9.88 24.6715 10.2 25.0875 10.84C25.5355 11.448 25.8235 12.088 25.9515 12.76C26.3355 11.992 26.8155 11.32 27.3915 10.744C27.9995 10.168 28.7515 9.88 29.6475 9.88C30.6075 9.88 31.3115 10.136 31.7595 10.648C32.2075 11.16 32.5115 11.72 32.6715 12.328C32.8315 13.064 32.8795 13.88 32.8155 14.776C32.7515 15.672 32.6875 16.568 32.6235 17.464C32.5595 18.36 32.5115 19.192 32.4795 19.96C32.4795 20.696 32.4955 21.304 32.5275 21.784C32.5595 22.232 32.6235 22.472 32.7195 22.504C33.0715 22.152 33.4075 21.72 33.7275 21.208C34.0795 20.696 34.3995 20.2 34.6875 19.72C34.9755 19.208 35.2155 18.744 35.4075 18.328C35.5995 17.912 35.7435 17.608 35.8395 17.416C35.9035 17.256 36.0155 17.208 36.1755 17.272H36.2715C36.4315 17.336 36.5275 17.432 36.5595 17.56C36.6235 17.688 36.6235 17.832 36.5595 17.992C35.7915 19.688 35.0715 21.048 34.3995 22.072C33.7595 23.064 33.1515 23.8 32.5755 24.28C32.0315 24.76 31.5035 25.016 30.9915 25.048C30.4795 25.08 29.9835 24.952 29.5035 24.664C28.9595 24.344 28.5755 23.768 28.3515 22.936C28.1275 22.072 27.9835 21.144 27.9195 20.152C27.8555 19.128 27.8395 18.12 27.8715 17.128C27.9355 16.104 27.9995 15.272 28.0635 14.632C28.1595 13.928 28.1755 13.448 28.1115 13.192C28.0475 12.904 27.9355 12.744 27.7755 12.712C27.5515 12.68 27.3115 12.936 27.0555 13.48C26.8315 14.024 26.6075 14.68 26.3835 15.448C26.1915 16.184 26.0155 16.968 25.8555 17.8C25.7275 18.6 25.6475 19.272 25.6155 19.816V20.056C25.6155 20.12 25.6155 20.216 25.6155 20.344C25.6155 20.472 25.5995 20.616 25.5675 20.776C25.5675 21 25.5355 21.272 25.4715 21.592C25.4075 21.88 25.3115 22.168 25.1835 22.456C25.0875 22.712 24.9435 22.936 24.7515 23.128C24.5595 23.32 24.3195 23.432 24.0315 23.464C23.3595 23.528 22.8315 23.4 22.4475 23.08C22.0955 22.728 21.8235 22.344 21.6315 21.928C21.4075 21.448 21.2795 20.904 21.2475 20.296C21.1195 19.208 21.0715 18.184 21.1035 17.224C21.1355 16.232 21.1675 15.368 21.1995 14.632C21.2955 13.928 21.3115 13.432 21.2475 13.144C21.2155 12.952 21.1675 12.776 21.1035 12.616C21.0395 12.424 20.9435 12.232 20.8155 12.04C20.6875 11.912 20.5755 11.88 20.4795 11.944C20.2235 12.072 19.9675 12.376 19.7115 12.856C19.4875 13.336 19.2635 13.896 19.0395 14.536C18.8155 15.208 18.6075 15.912 18.4155 16.648C18.2555 17.416 18.1115 18.152 17.9835 18.856C18.6555 19.048 19.1195 19.464 19.3755 20.104C19.6635 20.776 19.7755 21.48 19.7115 22.216C19.6795 22.952 19.5035 23.608 19.1835 24.184C18.8635 24.76 18.4315 25.048 17.8875 25.048C17.4395 25.048 17.1035 24.856 16.8795 24.472C16.6875 24.12 16.5595 23.688 16.4955 23.176C16.4315 22.696 16.3995 22.2 16.3995 21.688C16.4315 21.176 16.4635 20.776 16.4955 20.488C16.2395 20.776 16.0475 21.144 15.9195 21.592C15.7915 22.072 15.6955 22.44 15.6315 22.696C15.5675 22.92 15.4555 22.952 15.2955 22.792L15.2475 22.696C14.9275 22.184 14.8475 21.608 15.0075 20.968C15.1355 20.552 15.3275 20.136 15.5835 19.72C15.8395 19.304 16.2235 19.016 16.7355 18.856C17.0875 16.648 17.5035 14.936 17.9835 13.72C18.4635 12.536 18.9275 11.672 19.3755 11.128C19.9195 10.456 20.4795 10.072 21.0555 9.976C21.5355 9.88 22.1275 9.848 22.8315 9.88ZM48.2089 17.272C48.3689 17.336 48.4649 17.432 48.4969 17.56C48.5609 17.688 48.5609 17.832 48.4969 17.992C48.1449 18.76 47.8089 19.464 47.4889 20.104C47.1689 20.712 46.8649 21.256 46.5769 21.736C46.0329 22.568 45.4089 23.272 44.7049 23.848C44.0969 24.328 43.3609 24.712 42.4969 25C41.6329 25.32 40.6409 25.304 39.5209 24.952C38.9129 24.76 38.2889 24.376 37.6489 23.8C37.0409 23.224 36.5289 22.504 36.1129 21.64C35.6969 20.776 35.4249 19.8 35.2969 18.712C35.1689 17.592 35.2969 16.392 35.6809 15.112C36.0329 13.864 36.4809 12.904 37.0249 12.232C37.6009 11.528 38.1609 11 38.7049 10.648C39.3129 10.264 39.9529 10.04 40.6249 9.976C41.4249 9.912 42.0969 10.008 42.6409 10.264C43.1849 10.488 43.6329 10.776 43.9849 11.128C44.2729 11.448 44.4969 11.784 44.6569 12.136C44.8169 12.456 44.8969 12.824 44.8969 13.24C44.9289 13.656 44.8329 14.136 44.6089 14.68C44.3529 15.256 43.9849 15.736 43.5049 16.12C43.0889 16.472 42.5289 16.76 41.8249 16.984C41.1209 17.176 40.2249 17.192 39.1369 17.032C39.1369 17.128 39.1209 17.224 39.0889 17.32C39.0889 17.416 39.0889 17.512 39.0889 17.608C39.0249 18.664 39.0569 19.624 39.1849 20.488C39.3129 21.224 39.5529 21.928 39.9049 22.6C40.2569 23.24 40.8169 23.592 41.5849 23.656C42.1289 23.72 42.6409 23.624 43.1209 23.368C43.6329 23.112 44.0809 22.808 44.4649 22.456C44.9129 22.072 45.3449 21.624 45.7609 21.112C46.2409 20.376 46.6569 19.656 47.0089 18.952C47.3929 18.216 47.6489 17.704 47.7769 17.416C47.8409 17.256 47.9529 17.208 48.1129 17.272H48.2089ZM43.6009 11.944C43.3769 11.72 43.0729 11.656 42.6889 11.752C42.3049 11.848 41.9049 12.088 41.4889 12.472C41.0729 12.824 40.6729 13.304 40.2889 13.912C39.9049 14.488 39.6009 15.16 39.3769 15.928C39.6649 15.992 39.9849 16.024 40.3369 16.024C40.6889 16.024 41.0409 15.976 41.3929 15.88C41.7769 15.784 42.1289 15.656 42.4489 15.496C42.8009 15.304 43.1049 15.032 43.3609 14.68C43.6489 14.264 43.8249 13.896 43.8889 13.576C43.9849 13.224 44.0009 12.92 43.9369 12.664C43.8729 12.376 43.7609 12.136 43.6009 11.944ZM55.6489 15.352C55.2649 15.352 54.9289 15.256 54.6409 15.064C54.4489 14.936 54.4169 14.776 54.5449 14.584C54.8329 14.2 55.0089 13.864 55.0729 13.576C55.1689 13.288 55.2169 13.048 55.2169 12.856C55.2169 12.632 55.1689 12.424 55.0729 12.232C54.7529 12.04 54.3849 12.024 53.9689 12.184C53.5529 12.312 53.1369 12.6 52.7209 13.048C52.3369 13.496 51.9849 14.104 51.6649 14.872C51.3769 15.64 51.1849 16.552 51.0889 17.608C51.0569 18.664 51.1049 19.624 51.2329 20.488C51.3609 21.224 51.6009 21.928 51.9529 22.6C52.3049 23.24 52.8489 23.592 53.5849 23.656C54.1289 23.72 54.6409 23.624 55.1209 23.368C55.6329 23.112 56.0809 22.808 56.4649 22.456C56.9129 22.072 57.3449 21.624 57.7609 21.112C58.2729 20.376 58.7049 19.656 59.0569 18.952C59.4089 18.216 59.6489 17.704 59.7769 17.416C59.9049 17.288 60.0169 17.24 60.1129 17.272H60.2089C60.3689 17.336 60.4649 17.432 60.4969 17.56C60.5609 17.688 60.5609 17.832 60.4969 17.992C60.1449 18.76 59.8089 19.464 59.4889 20.104C59.1689 20.712 58.8649 21.256 58.5769 21.736C58.0649 22.568 57.4569 23.272 56.7529 23.848C56.1449 24.328 55.3929 24.712 54.4969 25C53.6329 25.32 52.6409 25.304 51.5209 24.952C50.9129 24.76 50.3049 24.376 49.6969 23.8C49.0889 23.224 48.5769 22.504 48.1609 21.64C47.7449 20.776 47.4729 19.8 47.3449 18.712C47.2169 17.592 47.3289 16.392 47.6809 15.112C48.0329 13.864 48.4809 12.904 49.0249 12.232C49.6009 11.528 50.1609 11 50.7049 10.648C51.3129 10.264 51.9529 10.04 52.6249 9.976C53.4569 9.912 54.1289 10.008 54.6409 10.264C55.1849 10.488 55.6329 10.776 55.9849 11.128C56.2729 11.448 56.4969 11.784 56.6569 12.136C56.8169 12.456 56.8969 12.824 56.8969 13.24C56.9289 13.656 56.8329 14.136 56.6089 14.68C56.3849 15.128 56.0649 15.352 55.6489 15.352ZM70.2409 20.776C70.2409 21 70.2089 21.272 70.1449 21.592C70.0809 21.88 69.9849 22.168 69.8569 22.456C69.7609 22.712 69.6169 22.936 69.4249 23.128C69.2329 23.32 68.9929 23.432 68.7049 23.464C68.0329 23.528 67.5049 23.4 67.1209 23.08C66.7689 22.728 66.4969 22.344 66.3049 21.928C66.0809 21.448 65.9529 20.904 65.9209 20.296C65.7929 19.208 65.7449 18.184 65.7769 17.224C65.8089 16.232 65.8409 15.368 65.8729 14.632C65.9689 13.928 65.9849 13.448 65.9209 13.192C65.8569 12.904 65.7449 12.744 65.5849 12.712C65.3609 12.68 65.1369 12.92 64.9129 13.432C64.6889 13.944 64.4649 14.568 64.2409 15.304C64.0489 16.04 63.8729 16.808 63.7129 17.608C63.5849 18.408 63.5049 19.096 63.4729 19.672C63.4089 20.664 63.3609 21.624 63.3289 22.552C63.3289 23.448 63.3289 24.216 63.3289 24.856C63.3289 25.272 63.1209 25.48 62.7049 25.48C61.4569 25.384 60.5929 24.744 60.1129 23.56C59.6329 22.376 59.3769 20.824 59.3449 18.904C59.2809 17.816 59.2649 16.76 59.2969 15.736C59.2969 14.68 59.3289 13.832 59.3929 13.192C59.4889 12.36 59.8409 11.672 60.4489 11.128C60.8009 10.84 61.2009 10.568 61.6489 10.312C62.1289 10.024 62.7689 9.864 63.5689 9.832C63.8249 9.832 63.9529 9.96 63.9529 10.216C63.9209 10.568 63.8729 11.384 63.8089 12.664C64.1929 11.928 64.6729 11.288 65.2489 10.744C65.8569 10.168 66.6089 9.88 67.5049 9.88C68.5929 9.88 69.3449 10.2 69.7609 10.84C70.2089 11.448 70.4969 12.088 70.6249 12.76C71.0089 11.992 71.4889 11.32 72.0649 10.744C72.6729 10.168 73.4249 9.88 74.3209 9.88C75.2809 9.88 75.9849 10.136 76.4329 10.648C76.8809 11.16 77.1849 11.72 77.3449 12.328C77.5049 13.064 77.5529 13.88 77.4889 14.776C77.4249 15.672 77.3609 16.568 77.2969 17.464C77.2329 18.36 77.1849 19.192 77.1529 19.96C77.1529 20.696 77.1689 21.304 77.2009 21.784C77.2329 22.232 77.2969 22.472 77.3929 22.504C77.7449 22.152 78.0809 21.72 78.4009 21.208C78.7529 20.696 79.0729 20.2 79.3609 19.72C79.6489 19.208 79.8889 18.744 80.0809 18.328C80.2729 17.912 80.4169 17.608 80.5129 17.416C80.5769 17.256 80.6889 17.208 80.8489 17.272H80.9449C81.1049 17.336 81.2009 17.432 81.2329 17.56C81.2969 17.688 81.2969 17.832 81.2329 17.992C80.4649 19.688 79.7449 21.048 79.0729 22.072C78.4329 23.064 77.8249 23.8 77.2489 24.28C76.7049 24.76 76.1769 25.016 75.6649 25.048C75.1529 25.08 74.6569 24.952 74.1769 24.664C73.6329 24.344 73.2489 23.768 73.0249 22.936C72.8009 22.072 72.6569 21.144 72.5929 20.152C72.5289 19.128 72.5129 18.12 72.5449 17.128C72.6089 16.104 72.6729 15.272 72.7369 14.632C72.8329 13.928 72.8489 13.448 72.7849 13.192C72.7209 12.904 72.6089 12.744 72.4489 12.712C72.2249 12.68 71.9849 12.936 71.7289 13.48C71.5049 14.024 71.2809 14.68 71.0569 15.448C70.8649 16.184 70.6889 16.968 70.5289 17.8C70.4009 18.6 70.3209 19.272 70.2889 19.816V20.056C70.2889 20.12 70.2889 20.216 70.2889 20.344C70.2889 20.472 70.2729 20.616 70.2409 20.776ZM92.9276 17.272C93.0876 17.336 93.1836 17.432 93.2156 17.56C93.2796 17.688 93.2796 17.832 93.2156 17.992C92.8636 18.76 92.5276 19.464 92.2076 20.104C91.8876 20.712 91.5836 21.256 91.2956 21.736C90.7516 22.568 90.1276 23.272 89.4236 23.848C88.8156 24.328 88.0796 24.712 87.2156 25C86.3516 25.32 85.3596 25.304 84.2396 24.952C83.6316 24.76 83.0076 24.376 82.3676 23.8C81.7596 23.224 81.2476 22.504 80.8316 21.64C80.4156 20.776 80.1436 19.8 80.0156 18.712C79.8876 17.592 80.0156 16.392 80.3996 15.112C80.7516 13.864 81.1996 12.904 81.7436 12.232C82.3196 11.528 82.8796 11 83.4236 10.648C84.0316 10.264 84.6716 10.04 85.3436 9.976C86.1436 9.912 86.8156 10.008 87.3596 10.264C87.9036 10.488 88.3516 10.776 88.7036 11.128C88.9916 11.448 89.2156 11.784 89.3756 12.136C89.5356 12.456 89.6156 12.824 89.6156 13.24C89.6476 13.656 89.5516 14.136 89.3276 14.68C89.0716 15.256 88.7036 15.736 88.2236 16.12C87.8076 16.472 87.2476 16.76 86.5436 16.984C85.8396 17.176 84.9436 17.192 83.8556 17.032C83.8556 17.128 83.8396 17.224 83.8076 17.32C83.8076 17.416 83.8076 17.512 83.8076 17.608C83.7436 18.664 83.7756 19.624 83.9036 20.488C84.0316 21.224 84.2716 21.928 84.6236 22.6C84.9756 23.24 85.5356 23.592 86.3036 23.656C86.8476 23.72 87.3596 23.624 87.8396 23.368C88.3516 23.112 88.7996 22.808 89.1836 22.456C89.6316 22.072 90.0636 21.624 90.4796 21.112C90.9596 20.376 91.3756 19.656 91.7276 18.952C92.1116 18.216 92.3676 17.704 92.4956 17.416C92.5596 17.256 92.6716 17.208 92.8316 17.272H92.9276ZM88.3196 11.944C88.0956 11.72 87.7916 11.656 87.4076 11.752C87.0236 11.848 86.6236 12.088 86.2076 12.472C85.7916 12.824 85.3916 13.304 85.0076 13.912C84.6236 14.488 84.3196 15.16 84.0956 15.928C84.3836 15.992 84.7036 16.024 85.0556 16.024C85.4076 16.024 85.7596 15.976 86.1116 15.88C86.4956 15.784 86.8476 15.656 87.1676 15.496C87.5196 15.304 87.8236 15.032 88.0796 14.68C88.3676 14.264 88.5436 13.896 88.6076 13.576C88.7036 13.224 88.7196 12.92 88.6556 12.664C88.5916 12.376 88.4796 12.136 88.3196 11.944ZM112.368 15.352C111.984 15.352 111.648 15.256 111.36 15.064C111.168 14.936 111.136 14.776 111.264 14.584C111.552 14.2 111.728 13.864 111.792 13.576C111.888 13.288 111.936 13.048 111.936 12.856C111.936 12.632 111.888 12.424 111.792 12.232C111.472 12.04 111.104 12.024 110.688 12.184C110.272 12.312 109.856 12.6 109.44 13.048C109.056 13.496 108.704 14.104 108.384 14.872C108.096 15.64 107.904 16.552 107.808 17.608C107.776 18.664 107.824 19.624 107.952 20.488C108.08 21.224 108.32 21.928 108.672 22.6C109.024 23.24 109.568 23.592 110.304 23.656C110.848 23.72 111.36 23.624 111.84 23.368C112.352 23.112 112.8 22.808 113.184 22.456C113.632 22.072 114.064 21.624 114.48 21.112C114.992 20.376 115.424 19.656 115.776 18.952C116.128 18.216 116.368 17.704 116.496 17.416C116.624 17.288 116.736 17.24 116.832 17.272H116.928C117.088 17.336 117.184 17.432 117.216 17.56C117.28 17.688 117.28 17.832 117.216 17.992C116.864 18.76 116.528 19.464 116.208 20.104C115.888 20.712 115.584 21.256 115.296 21.736C114.784 22.568 114.176 23.272 113.472 23.848C112.864 24.328 112.112 24.712 111.216 25C110.352 25.32 109.36 25.304 108.24 24.952C107.632 24.76 107.024 24.376 106.416 23.8C105.808 23.224 105.296 22.504 104.88 21.64C104.464 20.776 104.192 19.8 104.064 18.712C103.936 17.592 104.048 16.392 104.4 15.112C104.752 13.864 105.2 12.904 105.744 12.232C106.32 11.528 106.88 11 107.424 10.648C108.032 10.264 108.672 10.04 109.344 9.976C110.176 9.912 110.848 10.008 111.36 10.264C111.904 10.488 112.352 10.776 112.704 11.128C112.992 11.448 113.216 11.784 113.376 12.136C113.536 12.456 113.616 12.824 113.616 13.24C113.648 13.656 113.552 14.136 113.328 14.68C113.104 15.128 112.784 15.352 112.368 15.352Z" fill="#FFC700"/>
</svg>
